<svg xmlns="http://www.w3.org/2000/svg" width="50" height="50" fill="currentColor" viewBox="0 0 24 24">
  <path d="M21.708,7.293l-2.121-2.121C18.626,4.52,17.813,4.199,17,4.364V4H7v0.364c-0.813-0.165-1.626,0.156-2.587,0.808L2.292,7.293
    C2.112,7.474,2,7.723,2,8v2h20V8C22,7.723,21.888,7.474,21.708,7.293z M12,14c-3.859,0-7-3.14-7-7c0.777,0.776,2.777,1,4,1
    c1.859,0,3,2.28,3,3h4c0-0.72,1.141-3,3-3c1.223,0,3.223-0.224,4-1C19,10.86,15.859,14,12,14z"/>
  <path d="M2,22h20v-8H2V22z M5,16h2v2H5V16z M9,16h2v2H9V16z M13,16h2v2h-2V16z M17,16h2v2h-2V16z"/>
</svg>
